<?xml version="1.0" standalone="no"?><!-- Generator: Adobe Fireworks CS5, Export SVG Extension by Aaron Beall (http://fireworks.abeall.com) . Version: 0.6.1  --><!DOCTYPE svg PUBLIC "-//W3C//DTD SVG 1.1//EN" "http://www.w3.org/Graphics/SVG/1.1/DTD/svg11.dtd"><svg id="Untitled-Page%201" viewBox="0 0 240 130" style="background-color:#ffffff00" version="1.1"	xmlns="http://www.w3.org/2000/svg" xmlns:xlink="http://www.w3.org/1999/xlink" xml:space="preserve"	x="0px" y="0px" width="240px" height="130px">	<g id="white">		<g>			<path d="M 120.097 52.0048 L 131.9437 52.0048 C 136.623 52.0048 139.2987 54.8415 139.2987 57.8637 L 139.2987 71.9417 C 139.2987 74.9639 136.623 77.8014 131.9437 77.8014 L 120.097 77.8014 L 120.097 52.0048 ZM 125.5942 56.8323 L 125.5942 72.9731 L 131.275 72.9731 C 132.6874 72.9731 133.8386 72.2367 133.8386 70.7624 L 133.8386 59.0438 C 133.8386 57.5695 132.6874 56.8323 131.275 56.8323 L 125.5942 56.8323 Z" fill="#000000"/>			<path d="M 160.6112 77.8014 L 144.1602 77.8014 L 144.1602 51.9681 L 160.239 51.9681 L 160.239 56.7956 L 149.6556 56.7956 L 149.6556 62.3235 L 158.941 62.3235 L 158.941 67.1509 L 149.6556 67.1509 L 149.6556 72.9731 L 160.6112 72.9731 L 160.6112 77.8014 Z" fill="#000000"/>			<path d="M 171.6748 77.8014 L 163.0597 52.0048 L 168.556 52.0048 L 174.4237 70.7624 L 180.3278 52.0048 L 185.7877 52.0048 L 177.1719 77.8014 L 171.6748 77.8014 Z" fill="#000000"/>			<path d="M 189.2385 77.8014 L 189.2385 51.9681 L 194.7356 51.9681 L 194.7356 77.8014 L 189.2385 77.8014 Z" fill="#000000"/>			<path d="M 218.7979 68.8827 L 218.7979 72.1623 C 218.7979 75.1846 216.0868 78.0228 211.4445 78.0228 L 207.4347 78.0228 C 202.6062 78.0228 199.7468 75.1846 199.7468 72.1623 L 199.7468 57.6431 C 199.7468 54.6208 202.6062 51.7834 207.4347 51.7834 L 211.4445 51.7834 C 216.0868 51.7834 218.7979 54.6208 218.7979 57.6431 L 218.7979 60.8124 L 213.3378 60.8124 L 213.3378 58.8215 C 213.3378 57.348 212.1881 56.6109 210.7758 56.6109 L 207.7673 56.6109 C 206.3937 56.6109 205.244 57.348 205.244 58.8215 L 205.244 70.9839 C 205.244 72.4582 206.3937 73.1953 207.7673 73.1953 L 210.7758 73.1953 C 212.1881 73.1953 213.3378 72.4582 213.3378 70.9839 L 213.3378 68.8827 L 218.7979 68.8827 Z" fill="#000000"/>			<path d="M 240 77.8014 L 223.549 77.8014 L 223.549 51.9681 L 239.6285 51.9681 L 239.6285 56.7956 L 229.046 56.7956 L 229.046 62.3235 L 238.329 62.3235 L 238.329 67.1509 L 229.046 67.1509 L 229.046 72.9731 L 240 72.9731 L 240 77.8014 Z" fill="#000000"/>			<path d="M 125.2244 112.4894 L 125.2244 91.4836 L 118.9836 91.4836 L 118.9836 86.6553 L 136.3636 86.6553 L 136.3636 91.4836 L 130.6829 91.4836 L 130.6829 112.4894 L 125.2244 112.4894 Z" fill="#000000"/>			<path d="M 147.7261 112.7109 C 142.8984 112.7109 140.0392 109.8725 140.0392 106.8512 L 140.0392 92.331 C 140.0392 89.3089 142.8984 86.4714 147.7261 86.4714 L 151.885 86.4714 C 156.5643 86.4714 159.2375 89.3089 159.2375 92.331 L 159.2375 106.8512 C 159.2375 109.8725 156.5643 112.7109 151.885 112.7109 L 147.7261 112.7109 ZM 151.2163 107.8826 C 152.627 107.8826 153.7775 107.1454 153.7775 105.6719 L 153.7775 93.5104 C 153.7775 92.0361 152.627 91.2989 151.2163 91.2989 L 148.0597 91.2989 C 146.6843 91.2989 145.5338 92.0361 145.5338 93.5104 L 145.5338 105.6719 C 145.5338 107.1454 146.6843 107.8826 148.0597 107.8826 L 151.2163 107.8826 Z" fill="#000000"/>			<path d="M 171.6055 112.7109 C 166.7787 112.7109 163.9177 109.8725 163.9177 106.8512 L 163.9177 92.331 C 163.9177 89.3089 166.7787 86.4714 171.6055 86.4714 L 175.7644 86.4714 C 180.4437 86.4714 183.1169 89.3089 183.1169 92.331 L 183.1169 106.8512 C 183.1169 109.8725 180.4437 112.7109 175.7644 112.7109 L 171.6055 112.7109 ZM 175.0957 107.8826 C 176.5081 107.8826 177.6586 107.1454 177.6586 105.6719 L 177.6586 93.5104 C 177.6586 92.0361 176.5081 91.2989 175.0957 91.2989 L 171.9407 91.2989 C 170.5653 91.2989 169.4148 92.0361 169.4148 93.5104 L 169.4148 105.6719 C 169.4148 107.1454 170.5653 107.8826 171.9407 107.8826 L 175.0957 107.8826 Z" fill="#000000"/>			<path d="M 203.6931 112.4894 L 188.0961 112.4894 L 188.0961 86.6553 L 193.5916 86.6553 L 193.5916 107.6618 L 203.6931 107.6618 L 203.6931 112.4894 Z" fill="#000000"/>			<path d="M 211.6378 104.8236 L 211.6378 105.6719 C 211.6378 107.1454 212.8633 107.8826 214.3489 107.8826 L 217.1713 107.8826 C 218.694 107.8826 219.8823 107.2197 219.8823 105.7087 L 219.8823 105.0818 C 219.8823 102.5761 206.9592 101.839 206.9592 94.5417 L 206.9592 92.1832 C 206.9592 89.2353 209.4835 86.4714 213.9775 86.4714 L 217.1713 86.4714 C 221.8876 86.4714 224.5988 89.2721 224.5988 92.2575 L 224.5988 95.4268 L 219.1387 95.4268 L 219.1387 93.4736 C 219.1387 91.9993 217.989 91.2989 216.5396 91.2989 L 214.9443 91.2989 C 213.532 91.2989 212.4186 91.9625 212.4186 93.3992 L 212.4186 94.0629 C 212.4186 96.9747 225.3407 97.7854 225.3407 104.1608 L 225.3407 106.8879 C 225.3407 109.9837 222.5934 112.7109 217.84 112.7109 L 214.0162 112.7109 C 209.038 112.7109 206.1794 109.8725 206.1794 106.8512 L 206.1794 104.8236 L 211.6378 104.8236 Z" fill="#000000"/>		</g>		<g>			<path d="M 30.4787 38.2027 L 0 0 L 58.4711 46.5745 L 36.0878 46.5633 L 67.6276 85.9205 L 7.7426 38.2027 L 30.4787 38.2027 Z" fill="#000000"/>		</g>		<path d="M 102.228 31.4244 C 101.9469 29.5959 101.1549 28.0856 99.9431 26.9551 C 98.7563 25.8501 97.1741 25.1105 95.271 24.7875 C 93.4115 24.4717 91.2467 24.5541 88.8441 25.0826 L 67.1868 29.8493 C 65.2419 30.2778 63.2374 31.0638 61.2748 32.1144 C 59.5748 33.0242 57.9006 34.1451 56.3086 35.4036 L 59.0028 37.5503 C 59.7166 37.0602 60.4449 36.6141 61.1813 36.2311 C 62.4954 35.5475 63.8336 35.047 65.1307 34.7888 C 66.2079 34.5745 67.7057 34.2762 69.4347 33.9325 C 71.1902 33.5823 73.1891 33.1841 75.2258 32.7787 C 77.3013 32.3654 79.4137 31.9449 81.3353 31.5627 C 83.2882 31.1741 85.0342 30.8264 86.3224 30.5697 C 87.9095 30.2538 89.3235 30.2355 90.5232 30.481 C 91.7406 30.7296 92.7347 31.2493 93.4614 32.004 C 94.197 32.77 94.6555 33.7758 94.7852 34.9814 C 94.9165 36.2031 94.7119 37.6246 94.1198 39.1997 L 69.4974 104.5654 C 68.6613 106.788 67.4817 108.8675 66.0637 110.716 C 64.6425 112.5701 62.9924 114.1772 61.2264 115.4548 C 59.4685 116.7269 57.6073 117.6631 55.7511 118.19 C 53.9142 118.7112 52.099 118.828 50.4054 118.477 L 28.4999 113.9373 C 27.1818 113.6647 26.1288 113.0202 25.3522 112.0984 C 24.5859 111.1902 24.0897 110.0124 23.8633 108.6509 C 23.6433 107.3085 23.6844 105.7854 23.9995 104.1584 C 24.3088 102.5513 24.8857 100.8371 25.7365 99.087 L 38.7368 72.3494 L 35.428 69.7126 L 20.925 98.8096 C 20.8444 98.9695 20.7679 99.1294 20.6906 99.2893 C 20.614 99.4492 20.5383 99.6099 20.4641 99.7698 C 20.3916 99.9297 20.3191 100.0904 20.249 100.2503 C 20.1781 100.4102 20.108 100.5701 20.0403 100.7292 C 19.0123 103.1358 18.3315 105.4928 17.9859 107.7106 C 17.6362 109.9701 17.633 112.096 17.9786 113.9845 C 18.3291 115.9145 19.0437 117.6015 20.1177 118.9287 C 21.2166 120.2871 22.6942 121.2681 24.5425 121.743 L 47.1344 127.5524 C 49.5507 128.1736 52.1722 128.136 54.8575 127.5155 C 57.5889 126.8848 60.3628 125.6551 63.0231 123.9225 C 65.7028 122.1764 68.2446 119.9353 70.4852 117.3129 C 72.7209 114.6952 74.6345 111.7258 76.0767 108.5293 C 76.1718 108.3183 76.266 108.1048 76.3562 107.8913 C 76.4473 107.6778 76.5359 107.4628 76.6221 107.2477 C 76.7083 107.0326 76.7921 106.8176 76.875 106.6017 C 76.9564 106.3858 77.0361 106.1692 77.1127 105.9533 L 101.4022 37.9093 C 102.2692 35.478 102.5156 33.2897 102.228 31.4244 Z" fill="#000000"/>	</g></svg>